<svg width="20" height="20" viewBox="0 0 20 20" fill="none" xmlns="http://www.w3.org/2000/svg">
<path d="M9.99998 2.29166C9.18457 2.29166 8.48921 2.81251 8.23151 3.5416C8.11649 3.86705 7.75941 4.03763 7.43396 3.9226C7.10851 3.80757 6.93794 3.45049 7.05296 3.12504C7.48166 1.91215 8.63836 1.04166 9.99998 1.04166C11.3616 1.04166 12.5183 1.91215 12.947 3.12504C13.062 3.45049 12.8915 3.80757 12.566 3.9226C12.2406 4.03763 11.8835 3.86705 11.7685 3.5416C11.5108 2.81251 10.8154 2.29166 9.99998 2.29166Z" fill="#323232"/>
<path d="M2.29163 4.99999C2.29163 4.65481 2.57145 4.37499 2.91663 4.37499H17.0834C17.4285 4.37499 17.7084 4.65481 17.7084 4.99999C17.7084 5.34517 17.4285 5.62499 17.0834 5.62499H2.91663C2.57145 5.62499 2.29163 5.34517 2.29163 4.99999Z" fill="#323232"/>
<path d="M4.9292 7.04175C4.90624 6.69733 4.60842 6.43675 4.26401 6.45971C3.91959 6.48267 3.659 6.78048 3.68197 7.1249L4.06817 12.918C4.13942 13.987 4.19697 14.8504 4.33195 15.528C4.47228 16.2324 4.71096 16.8208 5.20396 17.282C5.69695 17.7432 6.29991 17.9422 7.01212 18.0354C7.69715 18.125 8.56252 18.125 9.63384 18.125H10.3662C11.4375 18.125 12.3029 18.125 12.9879 18.0354C13.7001 17.9422 14.3031 17.7432 14.7961 17.282C15.2891 16.8208 15.5278 16.2324 15.6681 15.528C15.8031 14.8504 15.8606 13.987 15.9319 12.918L16.3181 7.1249C16.341 6.78048 16.0805 6.48267 15.736 6.45971C15.3916 6.43675 15.0938 6.69733 15.0709 7.04175L14.6876 12.791C14.6127 13.9142 14.5593 14.6957 14.4422 15.2837C14.3286 15.8541 14.17 16.156 13.9421 16.3692C13.7143 16.5824 13.4025 16.7205 12.8258 16.796C12.2313 16.8737 11.448 16.875 10.3223 16.875H9.67779C8.55209 16.875 7.76875 16.8737 7.17425 16.796C6.59758 16.7205 6.28578 16.5824 6.05794 16.3692C5.83009 16.156 5.67148 15.8541 5.55786 15.2837C5.44072 14.6957 5.38736 13.9142 5.31248 12.791L4.9292 7.04175Z" fill="#323232"/>
<path d="M7.85451 8.54476C8.19797 8.51041 8.50425 8.761 8.5386 9.10447L8.95526 13.2711C8.98961 13.6146 8.73902 13.9209 8.39555 13.9552C8.05209 13.9896 7.74581 13.739 7.71147 13.3955L7.2948 9.22885C7.26045 8.88538 7.51104 8.5791 7.85451 8.54476Z" fill="#323232"/>
<path d="M12.7053 9.22885C12.7396 8.88538 12.489 8.5791 12.1456 8.54476C11.8021 8.51041 11.4958 8.761 11.4615 9.10447L11.0448 13.2711C11.0105 13.6146 11.261 13.9209 11.6045 13.9552C11.948 13.9896 12.2542 13.739 12.2886 13.3955L12.7053 9.22885Z" fill="#323232"/>
</svg>
